<svg width="18" height="18" viewBox="0 0 18 18" fill="none" xmlns="http://www.w3.org/2000/svg">
<path d="M11.9577 7.83138C11.9577 8.21726 11.8432 8.59447 11.6289 8.91532C11.4145 9.23617 11.1098 9.48624 10.7533 9.63391C10.3968 9.78157 10.0045 9.82021 9.626 9.74493C9.24754 9.66965 8.8999 9.48383 8.62704 9.21097C8.35418 8.93812 8.16836 8.59047 8.09308 8.21201C8.0178 7.83355 8.05644 7.44126 8.20411 7.08475C8.35178 6.72825 8.60185 6.42354 8.92269 6.20916C9.24354 5.99477 9.62075 5.88035 10.0066 5.88035C10.5241 5.88035 11.0203 6.0859 11.3862 6.45179C11.7521 6.81768 11.9577 7.31394 11.9577 7.83138ZM17.1604 1.97827V16.2859C17.1604 16.6308 17.0234 16.9617 16.7795 17.2056C16.5355 17.4495 16.2047 17.5866 15.8597 17.5866H4.15352C3.80856 17.5866 3.47772 17.4495 3.23379 17.2056C2.98987 16.9617 2.85283 16.6308 2.85283 16.2859V14.3348H1.55214C1.37966 14.3348 1.21424 14.2663 1.09228 14.1444C0.970313 14.0224 0.901794 13.857 0.901794 13.6845C0.901794 13.512 0.970313 13.3466 1.09228 13.2246C1.21424 13.1027 1.37966 13.0341 1.55214 13.0341H2.85283V9.78242H1.55214C1.37966 9.78242 1.21424 9.7139 1.09228 9.59194C0.970313 9.46997 0.901794 9.30456 0.901794 9.13207C0.901794 8.95959 0.970313 8.79417 1.09228 8.67221C1.21424 8.55025 1.37966 8.48173 1.55214 8.48173H2.85283V5.23H1.55214C1.37966 5.23 1.21424 5.16148 1.09228 5.03952C0.970313 4.91755 0.901794 4.75214 0.901794 4.57965C0.901794 4.40717 0.970313 4.24175 1.09228 4.11979C1.21424 3.99783 1.37966 3.92931 1.55214 3.92931H2.85283V1.97827C2.85283 1.63331 2.98987 1.30247 3.23379 1.05855C3.47772 0.814618 3.80856 0.677582 4.15352 0.677582H15.8597C16.2047 0.677582 16.5355 0.814618 16.7795 1.05855C17.0234 1.30247 17.1604 1.63331 17.1604 1.97827ZM14.429 11.9936C13.8531 11.2215 13.0852 10.6136 12.2015 10.2303C12.6858 9.78822 13.0251 9.21003 13.1748 8.57164C13.3246 7.93325 13.2779 7.26449 13.0408 6.65314C12.8037 6.04178 12.3873 5.51639 11.8462 5.14592C11.3052 4.77545 10.6648 4.57721 10.0091 4.57721C9.35335 4.57721 8.71294 4.77545 8.1719 5.14592C7.63086 5.51639 7.21447 6.04178 6.97737 6.65314C6.74026 7.26449 6.69353 7.93325 6.8433 8.57164C6.99307 9.21003 7.33234 9.78822 7.81659 10.2303C6.93118 10.6129 6.1615 11.2209 5.58428 11.9936C5.53304 12.0619 5.49576 12.1397 5.47456 12.2224C5.45336 12.3051 5.44867 12.3912 5.46075 12.4758C5.47283 12.5603 5.50144 12.6417 5.54495 12.7151C5.58847 12.7886 5.64603 12.8528 5.71435 12.9041C5.78267 12.9553 5.86042 12.9926 5.94315 13.0138C6.02589 13.035 6.11198 13.0397 6.19653 13.0276C6.28108 13.0155 6.36242 12.9869 6.4359 12.9434C6.50939 12.8999 6.57359 12.8423 6.62483 12.774C7.01859 12.249 7.52917 11.8229 8.11615 11.5294C8.70313 11.2359 9.35037 11.0831 10.0066 11.0831C10.6629 11.0831 11.3101 11.2359 11.8971 11.5294C12.4841 11.8229 12.9947 12.249 13.3884 12.774C13.4919 12.912 13.646 13.0032 13.8167 13.0276C13.9875 13.052 14.1609 13.0076 14.2989 12.9041C14.4369 12.8006 14.5281 12.6465 14.5525 12.4758C14.5769 12.305 14.5325 12.1316 14.429 11.9936Z" fill="white"/>
</svg>
