<svg width="18" height="18" viewBox="0 0 18 18" fill="none" xmlns="http://www.w3.org/2000/svg">
<path d="M17.8108 9.10444C17.8111 10.5641 17.4335 11.9989 16.7148 13.2694C15.996 14.5398 14.9606 15.6025 13.7093 16.354C12.458 17.1056 11.0334 17.5203 9.57427 17.558C8.1151 17.5956 6.67106 17.2548 5.38267 16.5688L2.61464 17.4915C2.38546 17.5679 2.13953 17.579 1.90441 17.5235C1.66928 17.468 1.45425 17.3481 1.28343 17.1773C1.1126 17.0065 0.992725 16.7914 0.937236 16.5563C0.881748 16.3212 0.892839 16.0753 0.969268 15.8461L1.89195 13.078C1.28887 11.9442 0.952031 10.6879 0.906995 9.40438C0.861959 8.12092 1.10991 6.84405 1.63203 5.67072C2.15414 4.49739 2.9367 3.45842 3.92031 2.63268C4.90391 1.80694 6.0627 1.21613 7.30873 0.905103C8.55475 0.594074 9.85526 0.570997 11.1115 0.837624C12.3678 1.10425 13.5468 1.65357 14.5591 2.4439C15.5714 3.23422 16.3903 4.24477 16.9537 5.39884C17.5172 6.55292 17.8103 7.82018 17.8108 9.10444Z" fill="white"/>
</svg>
