<svg width="20" height="13" viewBox="0 0 20 13" fill="none" xmlns="http://www.w3.org/2000/svg">
<path d="M14.4269 2.15341V11.2583C14.4269 11.6032 14.2898 11.9341 14.0459 12.178C13.802 12.4219 13.4711 12.5589 13.1262 12.5589H1.41995C1.07499 12.5589 0.744153 12.4219 0.500226 12.178C0.256299 11.9341 0.119263 11.6032 0.119263 11.2583V2.15341C0.119263 1.80845 0.256299 1.47761 0.500226 1.23369C0.744153 0.989759 1.07499 0.852722 1.41995 0.852722H13.1262C13.4711 0.852722 13.802 0.989759 14.0459 1.23369C14.2898 1.47761 14.4269 1.80845 14.4269 2.15341ZM19.1419 2.17374C19.0501 2.15128 18.9547 2.14852 18.8618 2.16561C18.7689 2.1827 18.6806 2.21927 18.6029 2.27291L15.8723 4.09307C15.8277 4.12279 15.7912 4.16305 15.766 4.21027C15.7407 4.2575 15.7275 4.31023 15.7276 4.36378V9.04789C15.7275 9.10144 15.7407 9.15416 15.766 9.20139C15.7912 9.24861 15.8277 9.28888 15.8723 9.31859L18.6183 11.1493C18.7211 11.2179 18.8413 11.2557 18.9648 11.2585C19.0884 11.2612 19.2101 11.2287 19.3158 11.1648C19.4137 11.1026 19.4939 11.0163 19.5488 10.9143C19.6038 10.8122 19.6316 10.6978 19.6296 10.5819V2.80376C19.6297 2.65952 19.5818 2.51936 19.4935 2.40531C19.4052 2.29126 19.2815 2.2098 19.1419 2.17374Z" fill="#00AE79"/>
</svg>
